<svg xmlns="http://www.w3.org/2000/svg" xmlns:xlink="http://www.w3.org/1999/xlink" width="500" zoomAndPan="magnify" viewBox="0 0 375 374.999991" height="500" preserveAspectRatio="xMidYMid meet" version="1.0"><defs><clipPath id="c6821162dc"><path d="M 174.757812 184.96875 L 180.757812 184.96875 L 180.757812 190.21875 L 174.757812 190.21875 Z M 174.757812 184.96875 " clip-rule="nonzero"/></clipPath><clipPath id="5d440f7269"><path d="M 29.640625 4.097656 L 319.890625 4.097656 L 319.890625 370.847656 L 29.640625 370.847656 Z M 29.640625 4.097656 " clip-rule="nonzero"/></clipPath></defs><g clip-path="url(#c6821162dc)"><path fill="#000000" d="M 180.367188 187.554688 L 179.703125 187.554688 C 179.703125 186.128906 178.601562 184.976562 177.242188 184.976562 C 175.902344 184.976562 174.808594 186.101562 174.785156 187.5 C 174.757812 188.945312 176.050781 190.203125 177.433594 190.203125 L 177.605469 190.203125 C 178.824219 190.203125 180.453125 189.203125 180.710938 187.988281 C 180.757812 187.765625 180.585938 187.554688 180.367188 187.554688 Z M 176.257812 187.617188 C 176.257812 187.808594 176.109375 187.960938 175.925781 187.960938 C 175.746094 187.960938 175.59375 187.808594 175.59375 187.617188 L 175.59375 187.058594 C 175.59375 186.867188 175.746094 186.710938 175.925781 186.710938 C 176.109375 186.710938 176.257812 186.867188 176.257812 187.058594 Z M 177.402344 187.617188 C 177.402344 187.808594 177.253906 187.960938 177.074219 187.960938 C 176.890625 187.960938 176.742188 187.808594 176.742188 187.617188 L 176.742188 187.058594 C 176.742188 186.867188 176.890625 186.710938 177.074219 186.710938 C 177.253906 186.710938 177.402344 186.867188 177.402344 187.058594 Z M 177.402344 187.617188 " fill-opacity="1" fill-rule="nonzero"/></g><g clip-path="url(#5d440f7269)"><path fill="#000000" d="M 319.890625 359.449219 L 319.890625 145.394531 C 319.890625 67.5 255.957031 4.195312 177.285156 4.195312 L 172.320312 4.195312 C 93.648438 4.195312 29.640625 67.5 29.640625 145.394531 L 29.640625 359.449219 C 29.640625 359.90625 29.714844 360.363281 29.792969 360.746094 C 29.714844 360.824219 29.714844 360.898438 29.792969 360.976562 C 29.640625 361.664062 29.640625 362.425781 29.640625 363.113281 C 29.640625 367.3125 33.078125 370.75 37.277344 370.75 C 41.554688 370.75 44.914062 367.3125 44.914062 363.113281 C 44.914062 341.121094 62.101562 323.328125 83.105469 323.328125 C 104.1875 323.328125 121.296875 341.121094 121.296875 363.113281 C 121.296875 367.3125 124.734375 370.75 128.9375 370.75 C 133.214844 370.75 136.574219 367.3125 136.574219 363.113281 C 136.574219 341.121094 153.757812 323.328125 174.765625 323.328125 C 195.847656 323.328125 212.957031 341.121094 212.957031 363.113281 C 212.957031 367.3125 216.394531 370.75 220.59375 370.75 C 224.871094 370.75 228.230469 367.3125 228.230469 363.113281 C 228.230469 341.121094 245.417969 323.328125 266.421875 323.328125 C 287.503906 323.328125 304.613281 341.121094 304.613281 363.113281 C 304.613281 367.3125 308.050781 370.75 312.25 370.75 C 316.527344 370.75 319.890625 367.3125 319.890625 363.113281 C 319.890625 362.425781 319.890625 361.664062 319.738281 360.976562 C 319.8125 360.898438 319.8125 360.824219 319.738281 360.746094 C 319.890625 360.363281 319.890625 359.90625 319.890625 359.449219 Z M 116.410156 189.535156 C 97.085938 189.535156 81.425781 170.214844 81.425781 146.539062 C 81.425781 122.789062 97.085938 103.546875 116.410156 103.546875 C 135.65625 103.546875 151.316406 122.789062 151.316406 146.539062 C 151.316406 170.214844 135.65625 189.535156 116.410156 189.535156 Z M 233.195312 189.535156 C 213.949219 189.535156 198.289062 170.214844 198.289062 146.539062 C 198.289062 122.789062 213.949219 103.546875 233.195312 103.546875 C 252.445312 103.546875 268.101562 122.789062 268.101562 146.539062 C 268.101562 170.214844 252.445312 189.535156 233.195312 189.535156 Z M 233.195312 189.535156 " fill-opacity="1" fill-rule="nonzero"/></g></svg>