<svg xmlns="http://www.w3.org/2000/svg" xmlns:xlink="http://www.w3.org/1999/xlink" width="1920" zoomAndPan="magnify" viewBox="0 0 1440 585.000005" height="780" preserveAspectRatio="xMidYMid meet" version="1.0"><defs><clipPath id="2844fc5ec1"><path d="M 1.230469 0 L 1438.769531 0 L 1438.769531 584 L 1.230469 584 Z M 1.230469 0 " clip-rule="nonzero"/></clipPath><clipPath id="9145f30b2a"><path d="M 1.230469 0 L 1438.769531 0 L 1438.769531 256 L 1.230469 256 Z M 1.230469 0 " clip-rule="nonzero"/></clipPath><clipPath id="b5d5de267e"><path d="M 936.636719 292.589844 L 1438.769531 292.589844 L 1438.769531 584 L 936.636719 584 Z M 936.636719 292.589844 " clip-rule="nonzero"/></clipPath><clipPath id="313b08a420"><path d="M 1.230469 420.78125 L 286.078125 420.78125 L 286.078125 584 L 1.230469 584 Z M 1.230469 420.78125 " clip-rule="nonzero"/></clipPath><clipPath id="bb180d019f"><path d="M 654 347.605469 L 793 347.605469 L 793 417 L 654 417 Z M 654 347.605469 " clip-rule="nonzero"/></clipPath><clipPath id="181f4d3444"><path d="M 551 387 L 889 387 L 889 584 L 551 584 Z M 551 387 " clip-rule="nonzero"/></clipPath><clipPath id="908dd1d4dc"><path d="M 602 403 L 839 403 L 839 584 L 602 584 Z M 602 403 " clip-rule="nonzero"/></clipPath><clipPath id="53c0b54675"><path d="M 603 369 L 838 369 L 838 584 L 603 584 Z M 603 369 " clip-rule="nonzero"/></clipPath></defs><g clip-path="url(#2844fc5ec1)"><path fill="#ffffff" d="M 1.230469 0 L 1438.769531 0 L 1438.769531 584 L 1.230469 584 Z M 1.230469 0 " fill-opacity="1" fill-rule="nonzero"/><path fill="#99bcb5" d="M 1.230469 0 L 1438.769531 0 L 1438.769531 584 L 1.230469 584 Z M 1.230469 0 " fill-opacity="1" fill-rule="nonzero"/></g><g clip-path="url(#9145f30b2a)"><path fill="#498478" d="M -23.113281 252.902344 L -23.113281 -446.714844 L 1497.707031 -446.714844 L 1497.707031 209.960938 C 1478.152344 196.644531 1460.839844 182.414062 1446.609375 167.519531 C 1234.738281 -55.089844 857.421875 1.25 611.84375 119.417969 C 427.101562 208.378906 193.589844 270.878906 -23.113281 252.902344 Z M -23.113281 252.902344 " fill-opacity="1" fill-rule="evenodd"/></g><g clip-path="url(#b5d5de267e)"><path fill="#1f5147" d="M 1594.855469 875.386719 L 936.636719 875.386719 C 947.011719 727.335938 1056.398438 759.398438 1122.410156 716.964844 C 1189.363281 674.527344 1153.527344 572.683594 1238.398438 506.671875 C 1322.328125 439.71875 1382.679688 457.636719 1431.714844 439.71875 C 1480.753906 421.800781 1490.183594 354.847656 1522.246094 320.902344 C 1549.589844 292.609375 1594.855469 292.609375 1594.855469 292.609375 Z M 1594.855469 875.386719 " fill-opacity="1" fill-rule="nonzero"/></g><g clip-path="url(#313b08a420)"><path fill="#1f5147" d="M -37.367188 707.421875 L 286.359375 707.421875 C 281.257812 634.605469 227.457031 650.375 194.992188 629.503906 C 162.0625 608.632812 179.6875 558.542969 137.945312 526.078125 C 96.667969 493.148438 66.984375 501.960938 42.867188 493.148438 C 18.75 484.335938 14.113281 451.40625 -1.65625 434.710938 C -15.105469 420.796875 -37.367188 420.796875 -37.367188 420.796875 Z M -37.367188 707.421875 " fill-opacity="1" fill-rule="nonzero"/></g><g clip-path="url(#bb180d019f)"><path fill="#498478" d="M 792.949219 405.851562 C 759.78125 409.632812 722.605469 416.082031 720.914062 416.378906 C 719.324219 416.101562 686.34375 410.378906 654.835938 406.554688 C 655.957031 401.117188 657.546875 395.382812 659.734375 389.339844 C 673.664062 350.875 705.871094 347.589844 726.359375 347.867188 C 734.285156 347.972656 763.976562 349.347656 778.203125 370.34375 C 786.808594 383.042969 791.171875 394.867188 792.949219 405.851562 Z M 792.949219 405.851562 C 759.78125 409.632812 722.605469 416.082031 720.914062 416.378906 C 719.324219 416.101562 686.34375 410.378906 654.835938 406.554688 C 655.957031 401.117188 657.546875 395.382812 659.734375 389.339844 C 673.664062 350.875 705.871094 347.589844 726.359375 347.867188 C 734.285156 347.972656 763.976562 349.347656 778.203125 370.34375 C 786.808594 383.042969 791.171875 394.867188 792.949219 405.851562 Z M 792.949219 405.851562 " fill-opacity="1" fill-rule="nonzero"/></g><g clip-path="url(#181f4d3444)"><path fill="#1f5147" d="M 847.558594 668.578125 C 827.195312 663.75 812.355469 640.710938 803.757812 627.058594 C 803.757812 627.058594 799.90625 696.3125 797.484375 697.824219 C 795.070312 699.335938 759.652344 703.554688 721.039062 703.574219 C 720.996094 703.574219 720.957031 703.574219 720.914062 703.574219 C 720.867188 703.574219 720.828125 703.574219 720.785156 703.574219 C 682.171875 703.554688 646.753906 699.335938 644.339844 697.824219 C 641.917969 696.3125 638.066406 627.058594 638.066406 627.058594 C 629.46875 640.710938 614.464844 663.101562 594.265625 668.578125 C 558.5625 678.261719 544.945312 649.515625 554.023438 609.878906 C 563.101562 570.242188 581.535156 535.46875 581.535156 535.46875 L 610.753906 553.222656 C 610.753906 553.222656 613.402344 546.871094 617.109375 540.289062 C 622.554688 528.1875 641.464844 514.570312 652.964844 512.152344 L 720.914062 555.035156 L 788.859375 512.152344 C 800.359375 514.570312 819.269531 528.1875 824.714844 540.289062 C 828.421875 546.871094 831.070312 553.222656 831.070312 553.222656 L 860.289062 535.46875 C 860.289062 535.46875 876.90625 569.941406 885.984375 609.578125 C 895.0625 649.214844 880.769531 676.453125 847.558594 668.578125 Z M 803.542969 388.535156 C 761.160156 392.425781 725.113281 410.386719 720.914062 412.542969 C 716.171875 410.109375 670.800781 387.507812 621.558594 387.796875 C 620.953125 396.570312 620.953125 396.570312 620.953125 396.570312 C 620.953125 396.570312 616.414062 395.664062 610.0625 395.664062 C 611.875 403.832031 613.085938 409.882812 613.085938 409.882812 L 720.722656 420.132812 L 720.726562 420.171875 L 720.914062 420.152344 L 721.101562 420.171875 L 721.105469 420.132812 L 828.742188 409.882812 C 828.742188 409.882812 829.953125 403.832031 831.765625 395.664062 C 825.414062 395.664062 820.875 396.570312 820.875 396.570312 C 820.875 396.570312 820.875 396.570312 820.269531 387.796875 C 814.625 387.761719 809.03125 388.03125 803.542969 388.535156 " fill-opacity="1" fill-rule="nonzero"/></g><g clip-path="url(#908dd1d4dc)"><path fill="#498478" d="M 812.929688 563.890625 C 804.792969 569.316406 721.53125 584.203125 720.921875 584.308594 L 720.921875 584.3125 C 720.921875 584.3125 720.914062 584.3125 720.914062 584.3125 C 720.914062 584.3125 720.90625 584.3125 720.90625 584.3125 L 720.90625 584.308594 C 720.296875 584.203125 637.039062 569.316406 628.898438 563.890625 C 625.265625 537.566406 616.59375 478.113281 602.976562 403.679688 C 627.125 400.101562 718.242188 415.914062 720.914062 416.378906 C 723.585938 415.914062 814.703125 400.101562 838.851562 403.679688 C 825.234375 478.113281 816.5625 537.566406 812.929688 563.890625 Z M 812.929688 563.890625 C 804.792969 569.316406 721.53125 584.203125 720.921875 584.308594 L 720.921875 584.3125 C 720.921875 584.3125 720.914062 584.3125 720.914062 584.3125 C 720.914062 584.3125 720.90625 584.3125 720.90625 584.3125 L 720.90625 584.308594 C 720.296875 584.203125 637.039062 569.316406 628.898438 563.890625 C 625.265625 537.566406 616.59375 478.113281 602.976562 403.679688 C 627.125 400.101562 718.242188 415.914062 720.914062 416.378906 C 723.585938 415.914062 814.703125 400.101562 838.851562 403.679688 C 825.234375 478.113281 816.5625 537.566406 812.929688 563.890625 Z M 812.929688 563.890625 " fill-opacity="1" fill-rule="nonzero"/></g><path fill="#498478" d="M 655.082031 478.261719 C 657.5 482.652344 654.507812 487.667969 648.714844 491.910156 C 648.21875 499.296875 634.105469 509.996094 623.707031 515.472656 C 621.648438 522.363281 623.234375 535.523438 612.117188 539.65625 C 611.769531 539.429688 604.914062 552.09375 604.566406 551.878906 C 588.882812 545.203125 581.535156 535.46875 581.535156 535.46875 C 581.535156 535.46875 587.882812 520.664062 592.585938 509.839844 C 597.339844 498.910156 600.992188 492.621094 606.09375 485.210938 C 606.3125 484.789062 606.535156 484.457031 606.757812 484.25 C 607.023438 483.867188 607.441406 483.484375 607.972656 483.105469 C 621.1875 471.230469 647.414062 466.398438 652.253906 469.773438 C 653.3125 469.488281 654.070312 469.261719 655.460938 469.433594 C 658.667969 469.824219 658.21875 477.734375 655.082031 478.261719 Z M 786.726562 478.261719 C 784.308594 482.652344 787.300781 487.667969 793.09375 491.910156 C 793.589844 499.296875 807.703125 509.996094 818.097656 515.472656 C 820.160156 522.363281 818.574219 535.523438 829.691406 539.65625 C 830.039062 539.429688 836.894531 552.09375 837.242188 551.878906 C 852.925781 545.203125 860.273438 535.46875 860.273438 535.46875 C 860.273438 535.46875 853.925781 520.664062 849.222656 509.839844 C 844.46875 498.910156 840.816406 492.621094 835.714844 485.210938 C 835.496094 484.789062 835.273438 484.457031 835.050781 484.25 C 834.785156 483.867188 834.367188 483.484375 833.835938 483.105469 C 820.621094 471.230469 794.394531 466.398438 789.554688 469.773438 C 788.496094 469.488281 787.738281 469.261719 786.347656 469.433594 C 783.140625 469.824219 783.589844 477.734375 786.726562 478.261719 Z M 720.914062 412.542969 C 722.808594 411.570312 731.1875 407.386719 743.6875 402.726562 C 731.554688 387.015625 725.351562 368.613281 725.277344 368.886719 C 722.222656 380.179688 714.1875 394.144531 704.914062 405.355469 C 713.632812 408.882812 719.386719 411.757812 720.914062 412.542969 Z M 720.914062 412.542969 " fill-opacity="1" fill-rule="nonzero"/><g clip-path="url(#53c0b54675)"><path fill="#90a19e" d="M 683.285156 397.683594 C 682.734375 397.515625 682.183594 397.347656 681.625 397.179688 C 684.597656 389.523438 688.414062 382.175781 692.214844 374.917969 C 692.734375 373.925781 694.238281 374.804688 693.71875 375.796875 C 692.167969 378.757812 690.617188 381.71875 689.125 384.710938 C 687.019531 388.9375 685.011719 393.261719 683.285156 397.683594 Z M 769.878906 394.492188 C 770.445312 394.347656 771.007812 394.203125 771.582031 394.0625 C 769.554688 389.007812 767.070312 384.136719 764.148438 379.535156 C 762.011719 376.171875 759.644531 372.960938 757.078125 369.914062 C 756.355469 369.058594 755.132812 370.292969 755.847656 371.144531 C 761.730469 378.125 766.457031 386.042969 769.878906 394.492188 Z M 652.730469 468.953125 C 643.109375 472.164062 633.546875 475.757812 624.53125 480.4375 C 622.375 481.558594 620.253906 482.746094 618.183594 484.015625 C 617.230469 484.601562 618.101562 486.109375 619.0625 485.519531 C 627.011719 480.640625 635.648438 476.949219 644.378906 473.71875 C 647.300781 472.640625 650.242188 471.617188 653.195312 470.628906 C 654.25 470.277344 653.796875 468.597656 652.730469 468.953125 Z M 654.507812 477.574219 C 649.984375 478.53125 645.640625 480.300781 641.429688 482.179688 C 636.714844 484.28125 632.117188 486.648438 627.554688 489.070312 C 625.234375 490.300781 622.921875 491.554688 620.601562 492.792969 C 619.617188 493.320312 620.492188 494.820312 621.480469 494.292969 C 630.117188 489.679688 638.722656 484.792969 647.921875 481.371094 C 650.222656 480.515625 652.570312 479.761719 654.972656 479.253906 C 656.066406 479.023438 655.605469 477.34375 654.507812 477.574219 Z M 648.714844 488.988281 C 648.015625 488.609375 647.085938 488.9375 646.386719 489.164062 C 645.488281 489.460938 644.617188 489.84375 643.761719 490.238281 C 638.742188 492.546875 633.996094 495.488281 629.25 498.304688 C 626.960938 499.660156 624.679688 501.046875 622.34375 502.324219 C 621.359375 502.859375 622.238281 504.363281 623.222656 503.824219 C 627.367188 501.558594 631.375 499.035156 635.464844 496.671875 C 637.691406 495.378906 639.933594 494.109375 642.222656 492.925781 C 643.851562 492.085938 645.527344 491.199219 647.300781 490.707031 C 647.460938 490.660156 647.621094 490.625 647.785156 490.585938 C 647.824219 490.578125 647.863281 490.570312 647.90625 490.566406 C 647.914062 490.585938 647.925781 490.609375 647.933594 490.644531 C 647.984375 490.832031 648.035156 491.019531 648.054688 491.214844 C 648.238281 492.972656 647.410156 494.769531 646.425781 496.167969 C 645.78125 497.085938 647.289062 497.953125 647.929688 497.046875 C 648.964844 495.574219 649.667969 493.851562 649.796875 492.046875 C 649.867188 491.019531 649.738281 489.546875 648.714844 488.988281 Z M 610.054688 542.832031 L 604.566406 551.878906 C 604.566406 551.878906 617.945312 558.28125 623.140625 558 C 621.207031 567.335938 611.070312 616.246094 606.726562 636.324219 C 606.625 636.792969 606.925781 637.253906 607.394531 637.355469 C 607.457031 637.371094 607.519531 637.375 607.578125 637.375 C 607.980469 637.375 608.339844 637.097656 608.429688 636.691406 C 613.214844 614.550781 625.046875 557.378906 625.164062 556.804688 C 625.183594 556.722656 625.171875 556.644531 625.167969 556.566406 C 625.335938 552.480469 610.054688 542.832031 610.054688 542.832031 Z M 798.136719 472.132812 C 795.136719 471.019531 792.113281 469.964844 789.078125 468.953125 C 788.011719 468.597656 787.554688 470.277344 788.613281 470.628906 C 798.164062 473.816406 807.652344 477.375 816.589844 482.039062 C 818.683594 483.128906 820.738281 484.285156 822.746094 485.519531 C 823.703125 486.105469 824.578125 484.601562 823.625 484.015625 C 815.625 479.105469 806.921875 475.394531 798.136719 472.132812 Z M 813.375 490.574219 C 815.699219 491.804688 818.007812 493.054688 820.328125 494.292969 C 821.3125 494.820312 822.195312 493.320312 821.207031 492.792969 C 812.433594 488.105469 803.691406 483.167969 794.347656 479.691406 C 792.046875 478.835938 789.703125 478.082031 787.300781 477.574219 C 786.207031 477.34375 785.738281 479.023438 786.835938 479.253906 C 791.289062 480.195312 795.570312 481.917969 799.710938 483.777344 C 804.355469 485.855469 808.882812 488.1875 813.375 490.574219 Z M 819.464844 502.324219 C 814.910156 499.832031 810.515625 497.046875 806.011719 494.46875 C 803.648438 493.117188 801.269531 491.78125 798.816406 490.601562 C 797.867188 490.140625 796.902344 489.703125 795.910156 489.335938 C 795.265625 489.097656 794.535156 488.828125 793.835938 488.816406 C 792.425781 488.789062 792.019531 490.410156 792 491.53125 C 791.964844 493.5 792.765625 495.460938 793.878906 497.046875 C 794.519531 497.953125 796.03125 497.085938 795.382812 496.167969 C 794.464844 494.863281 793.757812 493.320312 793.738281 491.699219 C 793.734375 491.472656 793.738281 491.242188 793.78125 491.015625 C 793.800781 490.902344 793.898438 490.714844 793.941406 490.574219 C 793.992188 490.582031 794.046875 490.59375 794.101562 490.601562 C 795.75 490.953125 797.320312 491.785156 798.8125 492.535156 C 803.476562 494.875 807.949219 497.59375 812.433594 500.253906 C 814.472656 501.460938 816.507812 502.6875 818.585938 503.824219 C 819.570312 504.363281 820.449219 502.859375 819.464844 502.324219 Z M 818.667969 558 C 823.863281 558.28125 837.242188 551.878906 837.242188 551.878906 L 831.753906 542.832031 C 831.753906 542.832031 816.480469 552.476562 816.640625 556.5625 C 816.636719 556.640625 816.625 556.722656 816.640625 556.804688 C 816.761719 557.378906 828.59375 614.550781 833.378906 636.691406 C 833.46875 637.097656 833.828125 637.375 834.230469 637.375 C 834.289062 637.375 834.351562 637.371094 834.414062 637.355469 C 834.882812 637.253906 835.179688 636.792969 835.082031 636.324219 C 830.738281 616.246094 820.601562 567.335938 818.667969 558 Z M 720.035156 584.308594 L 721.777344 584.308594 L 721.785156 416.378906 L 720.042969 416.378906 Z M 610.835938 395.320312 C 611.523438 395.375 680.183594 401.21875 720.761719 414.941406 C 720.765625 414.945312 720.765625 414.941406 720.769531 414.945312 C 720.855469 414.972656 720.949219 414.988281 721.039062 414.988281 C 721.132812 414.988281 721.226562 414.972656 721.3125 414.945312 C 721.3125 414.941406 721.316406 414.945312 721.320312 414.941406 C 761.894531 401.21875 831.15625 395.375 831.851562 395.320312 C 832.332031 395.28125 832.6875 394.859375 832.644531 394.378906 C 832.605469 393.902344 832.179688 393.554688 831.707031 393.585938 C 831.011719 393.644531 761.855469 399.476562 721.039062 413.203125 C 680.230469 399.476562 611.667969 393.644531 610.980469 393.585938 C 610.507812 393.554688 610.078125 393.902344 610.039062 394.378906 C 610 394.859375 610.355469 395.277344 610.835938 395.320312 Z M 638.265625 615.738281 C 637.3125 596 636.226562 576.386719 634.390625 572.308594 C 634.195312 571.867188 633.675781 571.675781 633.242188 571.871094 C 632.804688 572.066406 632.609375 572.582031 632.808594 573.019531 C 634.660156 577.140625 635.875 602.304688 636.53125 615.824219 C 636.878906 623.023438 637.054688 626.515625 637.21875 627.25 C 637.3125 627.65625 637.671875 627.925781 638.066406 627.925781 C 638.132812 627.925781 638.195312 627.921875 638.261719 627.90625 C 638.730469 627.800781 639.023438 627.332031 638.917969 626.863281 C 638.777344 626.246094 638.539062 621.378906 638.265625 615.738281 Z M 809.054688 576.003906 C 805.019531 580.351562 803.09375 622.257812 802.886719 627.019531 C 802.867188 627.5 803.238281 627.90625 803.71875 627.925781 C 803.730469 627.925781 803.742188 627.925781 803.757812 627.925781 C 804.21875 627.925781 804.605469 627.5625 804.625 627.09375 C 805.425781 608.644531 807.605469 580.125 810.328125 577.191406 C 810.65625 576.839844 810.636719 576.289062 810.285156 575.960938 C 809.933594 575.632812 809.378906 575.65625 809.054688 576.003906 Z M 754.441406 670.625 C 743.484375 667.054688 733.167969 660.421875 723.960938 652.6875 C 723.796875 622.859375 723.519531 589.710938 723.5 587.257812 C 723.496094 586.777344 723.105469 586.394531 722.628906 586.394531 C 722.628906 586.394531 722.625 586.394531 722.621094 586.394531 C 722.140625 586.398438 721.753906 586.789062 721.757812 587.269531 C 721.765625 587.867188 722.039062 620.949219 722.210938 651.195312 C 699.09375 631.125 683.433594 604.671875 683.214844 604.296875 C 682.972656 603.882812 682.4375 603.742188 682.023438 603.984375 C 681.609375 604.226562 681.46875 604.761719 681.710938 605.175781 C 681.9375 605.5625 698.222656 633.074219 722.222656 653.484375 C 722.351562 676.980469 722.410156 698.203125 722.214844 700.320312 C 722.171875 700.796875 722.523438 701.21875 723.003906 701.265625 C 723.03125 701.265625 723.058594 701.269531 723.082031 701.269531 C 723.527344 701.269531 723.90625 700.929688 723.949219 700.476562 C 724.144531 698.335938 724.09375 677.894531 723.972656 654.949219 C 733.050781 662.414062 743.167969 668.78125 753.902344 672.277344 C 753.992188 672.308594 754.082031 672.320312 754.171875 672.320312 C 754.539062 672.320312 754.878906 672.089844 755 671.722656 C 755.148438 671.265625 754.898438 670.773438 754.441406 670.625 Z M 612.457031 575.230469 C 611.9375 575.230469 611.429688 575.019531 610.996094 574.617188 C 609.894531 573.585938 609.574219 571.574219 610.132812 569.238281 C 611.042969 565.421875 612.898438 565.246094 613.652344 565.347656 C 614.953125 565.523438 615.9375 566.851562 615.886719 568.378906 C 615.871094 568.851562 615.484375 569.222656 615.019531 569.222656 C 615.007812 569.222656 615 569.222656 614.988281 569.222656 C 614.511719 569.207031 614.132812 568.804688 614.148438 568.324219 C 614.171875 567.664062 613.78125 567.121094 613.421875 567.070312 C 612.949219 567.007812 612.269531 567.789062 611.824219 569.644531 C 611.339844 571.671875 611.714844 572.90625 612.1875 573.347656 C 612.257812 573.414062 612.398438 573.511719 612.515625 573.484375 C 612.675781 573.433594 612.886719 573.15625 613 572.644531 C 613.105469 572.175781 613.574219 571.882812 614.039062 571.984375 C 614.507812 572.089844 614.804688 572.554688 614.699219 573.023438 C 614.453125 574.121094 613.84375 574.894531 613.027344 575.144531 C 612.839844 575.203125 612.648438 575.230469 612.457031 575.230469 Z M 605.925781 598.03125 C 605.375 598.03125 604.839844 597.800781 604.398438 597.363281 C 603.109375 596.089844 602.8125 593.351562 603.636719 590.382812 C 604.296875 588.023438 605.179688 586.730469 606.339844 586.4375 C 607.070312 586.246094 607.820312 586.5 608.4375 587.140625 C 609.296875 588.03125 609.75 589.5 609.464844 590.484375 C 609.328125 590.945312 608.84375 591.207031 608.386719 591.078125 C 607.925781 590.941406 607.660156 590.460938 607.792969 590 C 607.882812 589.6875 607.664062 588.839844 607.1875 588.347656 C 607.109375 588.269531 606.921875 588.085938 606.765625 588.125 C 606.492188 588.195312 605.875 588.847656 605.316406 590.851562 C 604.566406 593.527344 604.949219 595.460938 605.621094 596.125 C 605.824219 596.328125 605.949219 596.292969 606 596.277344 C 606.308594 596.1875 606.941406 595.554688 607.355469 593.75 C 607.460938 593.28125 607.933594 592.992188 608.398438 593.097656 C 608.867188 593.203125 609.15625 593.671875 609.050781 594.136719 C 608.566406 596.253906 607.65625 597.609375 606.484375 597.949219 C 606.300781 598.003906 606.109375 598.03125 605.925781 598.03125 Z M 828.714844 575.230469 C 828.523438 575.230469 828.332031 575.203125 828.144531 575.144531 C 827.324219 574.894531 826.714844 574.121094 826.472656 573.023438 C 826.367188 572.554688 826.664062 572.089844 827.132812 571.984375 C 827.589844 571.882812 828.066406 572.175781 828.171875 572.644531 C 828.285156 573.15625 828.496094 573.433594 828.65625 573.484375 C 828.773438 573.515625 828.914062 573.414062 828.984375 573.347656 C 829.453125 572.90625 829.832031 571.671875 829.347656 569.644531 C 828.902344 567.789062 828.21875 567.003906 827.75 567.070312 C 827.390625 567.121094 827 567.664062 827.023438 568.324219 C 827.035156 568.804688 826.660156 569.207031 826.179688 569.222656 C 825.679688 569.21875 825.296875 568.859375 825.28125 568.378906 C 825.234375 566.851562 826.214844 565.519531 827.519531 565.347656 C 828.269531 565.246094 830.125 565.421875 831.039062 569.238281 C 831.597656 571.574219 831.273438 573.582031 830.175781 574.617188 C 829.742188 575.019531 829.230469 575.230469 828.714844 575.230469 Z M 835.246094 598.03125 C 835.058594 598.03125 834.871094 598.003906 834.683594 597.949219 C 833.515625 597.609375 832.605469 596.253906 832.117188 594.136719 C 832.011719 593.671875 832.304688 593.203125 832.773438 593.097656 C 833.234375 592.992188 833.707031 593.28125 833.816406 593.75 C 834.226562 595.554688 834.859375 596.1875 835.171875 596.277344 C 835.21875 596.292969 835.34375 596.328125 835.550781 596.125 C 836.222656 595.460938 836.601562 593.527344 835.855469 590.851562 C 835.296875 588.847656 834.679688 588.195312 834.40625 588.125 C 834.265625 588.089844 834.0625 588.269531 833.984375 588.347656 C 833.507812 588.839844 833.289062 589.6875 833.378906 590 C 833.511719 590.460938 833.246094 590.941406 832.785156 591.078125 C 832.3125 591.207031 831.839844 590.941406 831.707031 590.484375 C 831.421875 589.496094 831.871094 588.03125 832.734375 587.136719 C 833.351562 586.5 834.097656 586.246094 834.832031 586.4375 C 835.988281 586.730469 836.875 588.023438 837.53125 590.382812 C 838.359375 593.351562 838.0625 596.089844 836.773438 597.363281 C 836.332031 597.800781 835.796875 598.03125 835.246094 598.03125 Z M 835.246094 598.03125 " fill-opacity="1" fill-rule="nonzero"/></g></svg>